# xmcd
#
# Track frame offsets: 
#        150
#        14430
#        25827
#        44475
#        56110
#        72665
#        89302
#        107010
#        120415
#        131200
#        149577
#        162200
#        173090
#        184115
#        196072
#        212360
#        225562
#        238550
#        251792
#        265502
#        282199
#        297294
#
# Disc length: 4166 seconds
#
# Revision: 2
# Processed by: cddbd v1.5.2PL0 Copyright (c) Steve Scherf et al.
# Submitted via: ExactAudioCopy v0.99pb4
#
DISCID=41104416
DTITLE=Boozoo Chavis - Johnnie Billy Goat
DYEAR=2000
DGENRE=Folk, World, and Country - Zydeco
TTITLE0=Dance All Night
TTITLE1=Dog Hill
TTITLE2=Goin' To La Maison
TTITLE3=Oh Yeah
TTITLE4=Motor Dude Special
TTITLE5=Lula Lula Don't You Go To Bingo
TTITLE6=I'm Going to the Country to Get Me a Mojo Hand
TTITLE7=Lucille
TTITLE8=I Want to Go Home
TTITLE9=Tee Black
TTITLE10=Big Leg Woman
TTITLE11=Who Stole My Monkey ?
TTITLE12=Boozoo, That's Who !
TTITLE13=I Went to the Dance
TTITLE14=Paper in My Shoe
TTITLE15=41 Days
TTITLE16=Oh Black Gal
TTITLE17=Grand Mary's Two Step
TTITLE18=Valse De Derniere Fois
TTITLE19=Oh Bye Mon Neg
TTITLE20=Johnnie Billy Goat
TTITLE21=I'm Going Away
EXTD=YEAR: 2000
EXTT0=
EXTT1=
EXTT2=
EXTT3=
EXTT4=
EXTT5=
EXTT6=
EXTT7=
EXTT8=
EXTT9=
EXTT10=
EXTT11=
EXTT12=
EXTT13=
EXTT14=
EXTT15=
EXTT16=
EXTT17=
EXTT18=
EXTT19=
EXTT20=
EXTT21=
PLAYORDER=
